<svg xmlns="http://www.w3.org/2000/svg" width="1400" height="900" viewBox="0 0 1400 900">
<rect width="1400" height="900" rx="28" fill="#1a1f28"/>
<rect x="0" y="0" width="1400" height="70" fill="#202632"/>
<circle cx="40" cy="35" r="10" fill="#ff5f57"/><circle cx="75" cy="35" r="10" fill="#febc2e"/><circle cx="110" cy="35" r="10" fill="#28c840"/>
<text x="1030" y="45" fill="white" font-size="24" font-family="Arial" font-weight="bold">Skill OS Dashboard</text>
<rect x="760" y="150" width="260" height="260" rx="18" fill="#272d39"/>
<text x="790" y="200" fill="white" font-size="22" font-family="Arial">Frontend Roadmap</text>
<rect x="790" y="285" width="160" height="12" rx="6" fill="#3a4254"/>
<rect x="790" y="285" width="110" height="12" rx="6" fill="#7c5cff"/>
<text x="790" y="340" fill="#c9d0dc" font-size="18">68% Completed</text>
<rect x="790" y="360" width="150" height="48" rx="12" fill="#7c5cff"/>
<text x="825" y="392" fill="white" font-size="20">Continue →</text>
<rect x="1050" y="150" width="250" height="260" rx="18" fill="#272d39"/>
<text x="1080" y="200" fill="white" font-size="22">Today's Tasks</text>
<text x="1080" y="250" fill="#d8dde7" font-size="18">✅ React Components</text>
<text x="1080" y="290" fill="#d8dde7" font-size="18">✅ CSS Grid</text>
<text x="1080" y="330" fill="#d8dde7" font-size="18">⬜ React Router</text>
<rect x="760" y="450" width="260" height="250" rx="18" fill="#272d39"/>
<text x="790" y="500" fill="white" font-size="22">Career XP</text>
<text x="790" y="610" fill="white" font-size="72" font-weight="bold">4820</text>
</svg>